<svg id="Capa_1" enable-background="new 0 0 512 512" height="32" viewBox="0 0 512 512" width="32" xmlns="http://www.w3.org/2000/svg"><g><path d="m436 452c8.284 0 15-6.716 15-15v-390c0-8.284-6.716-15-15-15h-141.957c-10.077-19.013-30.068-32-53.043-32h-45c-8.284 0-15 6.716-15 15v17h-75c-24.813 0-45 20.187-45 45v390c0 24.813 20.187 45 45 45h330c8.284 0 15-6.716 15-15s-6.716-15-15-15h-15v-30zm-15-30h-128.072c5.123-8.833 8.072-19.075 8.072-30v-30h75c8.284 0 15-6.716 15-15s-6.716-15-15-15h-75v-30h75c8.284 0 15-6.716 15-15s-6.716-15-15-15h-75v-30h75c8.284 0 15-6.716 15-15s-6.716-15-15-15h-75v-30h75c8.284 0 15-6.716 15-15v-60c0-8.284-6.716-15-15-15h-75v-30h120zm-120-300h60v30h-60zm-90-92h30c18.946 0 30 16.296 30 30v280.072c-8.833-5.123-19.075-8.072-30-8.072h-30zm-105 32h75v285c0 8.284 6.716 15 15 15h45c16.542 0 30 13.458 30 30s-13.458 30-30 30h-135c-5.258 0-10.305.915-15 2.58v-347.58c0-8.271 6.729-15 15-15zm285 420h-285c-8.271 0-15-6.729-15-15s6.729-15 15-15h285z"/></g></svg>